<svg width="346" height="74" viewBox="0 0 346 74" fill="none" xmlns="http://www.w3.org/2000/svg">
<path d="M33.5469 32.7969C33.4844 32.3906 33.4062 32.1406 33.3125 32.0469C33.5312 31.4844 33.6875 30.9375 33.7812 30.4062C33.9062 29.8438 34 29.3125 34.0625 28.8125C34.125 28.375 34.1875 27.9688 34.25 27.5938C34.3438 27.2188 34.4531 26.8594 34.5781 26.5156C35.1094 26.3906 35.5 26.1719 35.75 25.8594C36.0312 25.5156 36.25 25.2188 36.4062 24.9688C36.9688 24.9375 37.3281 25.0156 37.4844 25.2031C37.6719 25.3906 37.875 25.7031 38.0938 26.1406C38.25 26.4844 38.4688 26.8594 38.75 27.2656C39.0312 27.6406 39.4531 27.9375 40.0156 28.1562C40.1094 28.5 40.2188 28.8281 40.3438 29.1406C40.4688 29.4531 40.6094 29.7812 40.7656 30.125C41.0469 30.7812 41.3125 31.4688 41.5625 32.1875C41.8125 32.875 41.9531 33.5312 41.9844 34.1562C41.6094 34.875 41.3125 35.7031 41.0938 36.6406C40.9062 37.5781 40.7812 38.5312 40.7188 39.5C40.6875 40.4375 40.7188 41.3438 40.8125 42.2188C40.9062 43.0938 41.0625 43.8281 41.2812 44.4219L41.5625 45.1719L42.5938 45.0781C43.7188 44.7969 44.7344 44.4844 45.6406 44.1406C46.5469 43.7656 47.3906 43.3281 48.1719 42.8281C48.9531 42.3281 49.7031 41.7656 50.4219 41.1406C51.1406 40.4844 51.8906 39.7188 52.6719 38.8438C53.4219 37.9688 54.0938 36.9844 54.6875 35.8906C55.2812 34.7656 55.7656 33.6094 56.1406 32.4219C56.5469 31.2344 56.8594 30.0469 57.0781 28.8594C57.2969 27.6719 57.4375 26.5625 57.5 25.5312C58.0938 25.25 58.4219 24.7969 58.4844 24.1719L58.3438 23.5625C58.25 23.4062 58.2031 23.2656 58.2031 23.1406C58.2344 22.9844 58.2812 22.8438 58.3438 22.7188C58.5938 22 59.125 21.4688 59.9375 21.125C60.5 21.5 61.0156 21.9062 61.4844 22.3438C61.9844 22.7812 62.4375 23.2188 62.8438 23.6562C62.9062 24.5 63.0312 25.2344 63.2188 25.8594C63.4062 26.4531 63.6094 27.0312 63.8281 27.5938C64.0469 28.125 64.2344 28.6406 64.3906 29.1406C64.5781 29.6406 64.7031 30.25 64.7656 30.9688C64.4531 31.9062 64.2188 32.7969 64.0625 33.6406C63.9375 34.4531 63.8125 35.3125 63.6875 36.2188L63.5938 36.7344C63.0312 37.7031 62.4688 38.7031 61.9062 39.7344C61.375 40.7344 60.9375 41.6094 60.5938 42.3594C60.4062 42.5469 60.2344 42.7656 60.0781 43.0156C59.9531 43.2656 59.8281 43.5156 59.7031 43.7656C59.6406 43.8594 59.5469 44.0156 59.4219 44.2344C59.3281 44.4531 59.2344 44.6094 59.1406 44.7031L58.0156 44.2812L57.7344 45.7344L56.9844 45.9219L56.4219 46.5781C55.7031 47.8281 54.9375 48.875 54.125 49.7188C53.3438 50.5625 52.4531 51.3125 51.4531 51.9688C50.4844 52.625 49.375 53.25 48.125 53.8438C46.9062 54.4062 45.5 55.0156 43.9062 55.6719C43.2812 55.5781 42.7344 55.5312 42.2656 55.5312C41.8281 55.5 41.3906 55.4688 40.9531 55.4375C40.5156 55.4375 40.0938 55.4219 39.6875 55.3906C39.2812 55.3594 38.8125 55.3125 38.2812 55.25C38.1562 54.9688 37.9844 54.7656 37.7656 54.6406C37.5469 54.5156 37.3438 54.4531 37.1562 54.4531C36.5312 54.1406 36.0625 53.7031 35.75 53.1406C35.4375 52.5781 35.1094 51.9531 34.7656 51.2656C34.6094 50.8906 34.4375 50.5156 34.25 50.1406C34.0938 49.7656 33.8906 49.4062 33.6406 49.0625L34.5781 48.7812L33.3594 47.375C33.2656 47.2812 33.1562 47.1875 33.0312 47.0938C32.9375 47 32.8438 46.8906 32.75 46.7656V45.875C32.625 43.3125 32.5625 40.9531 32.5625 38.7969C32.5938 36.6094 32.8906 34.6875 33.4531 33.0312L33.5469 32.7969ZM64.8594 51.9688C64.7031 52 64.5625 51.8906 64.4375 51.6406C64.3125 51.3594 64.1719 51.0938 64.0156 50.8438H64.5312C64.3125 50.1562 64.25 49.5312 64.3438 48.9688C64.4688 48.375 64.6094 47.8125 64.7656 47.2812C64.9219 46.7188 65.0469 46.1875 65.1406 45.6875C65.2656 45.1562 65.2188 44.6094 65 44.0469C65.1562 44.1406 65.2656 44.1094 65.3281 43.9531C65.4219 43.7656 65.4844 43.5469 65.5156 43.2969C65.5781 43.0156 65.5938 42.7344 65.5625 42.4531C65.5625 42.1406 65.5469 41.8906 65.5156 41.7031C65.9219 40.7344 66.2344 39.7344 66.4531 38.7031C66.7031 37.6719 66.9219 36.6562 67.1094 35.6562C67.2969 34.625 67.5 33.6406 67.7188 32.7031C67.9688 31.7344 68.2812 30.8281 68.6562 29.9844C69.0938 29.9219 69.5469 29.9844 70.0156 30.1719C70.5156 30.3281 70.8438 30.5312 71 30.7812C71.9688 30.0312 72.8281 29.125 73.5781 28.0625C74.3281 27 75.0781 25.9688 75.8281 24.9688C76.6094 23.9375 77.4844 23.0312 78.4531 22.25C79.4219 21.4688 80.625 21 82.0625 20.8438C82.8125 21.375 83.6562 21.9531 84.5938 22.5781C85.5312 23.1719 86.2969 23.9219 86.8906 24.8281C87.1406 24.9844 87.375 25.1562 87.5938 25.3438C87.8438 25.5 88.0938 25.6562 88.3438 25.8125V26.5156C88.7812 26.9219 89.1406 27.4062 89.4219 27.9688C89.7344 28.5 90 29.0781 90.2188 29.7031C90.4688 30.2969 90.7031 30.9062 90.9219 31.5312C91.1406 32.1562 91.3906 32.7344 91.6719 33.2656C91.6094 33.4531 91.5781 33.625 91.5781 33.7812C91.6094 33.9062 91.6406 34.0469 91.6719 34.2031C91.7344 34.3281 91.7812 34.4844 91.8125 34.6719C91.8438 34.8281 91.8594 35.0312 91.8594 35.2812C91.7344 36.9375 91.1875 38.2812 90.2188 39.3125C89.2812 40.3125 88.125 41.1406 86.75 41.7969C85.4062 42.4219 83.9688 42.9688 82.4375 43.4375C80.9062 43.875 79.5156 44.3594 78.2656 44.8906C78.2656 45.0156 78.3281 45.0781 78.4531 45.0781C78.6094 45.0781 78.6562 45.1719 78.5938 45.3594C79.5312 45.9219 80.25 46.375 80.75 46.7188C81.2812 47.0625 81.7656 47.3594 82.2031 47.6094C82.6719 47.8281 83.1719 48.0156 83.7031 48.1719C84.2656 48.3281 85.0312 48.5156 86 48.7344C86.9688 48.9531 87.7188 49.1406 88.25 49.2969C88.8125 49.4219 89.3125 49.5312 89.75 49.625C90.1875 49.6875 90.6562 49.75 91.1562 49.8125C91.6562 49.875 92.3281 49.9531 93.1719 50.0469C93.5156 50.3906 93.7969 50.7969 94.0156 51.2656C94.2344 51.7344 94.3906 52.2031 94.4844 52.6719C94.5781 53.1406 94.5938 53.5938 94.5312 54.0312C94.5 54.4375 94.375 54.7656 94.1562 55.0156C94.1875 55.1406 94.2656 55.2031 94.3906 55.2031C94.5469 55.1719 94.7031 55.1719 94.8594 55.2031C94.6406 55.3594 94.4531 55.5469 94.2969 55.7656C94.1406 55.9844 93.9844 56.2031 93.8281 56.4219C93.6719 56.6406 93.4844 56.8438 93.2656 57.0312C93.0781 57.2188 92.8281 57.3281 92.5156 57.3594C91.3906 57.7969 89.9531 57.8125 88.2031 57.4062C86.4531 57 84.2188 56.2812 81.5 55.25C80.1562 54.75 79.0625 54.2969 78.2188 53.8906C77.375 53.4844 76.6406 53.0938 76.0156 52.7188C75.3906 52.3125 74.8125 51.8906 74.2812 51.4531C73.75 50.9844 73.1406 50.4375 72.4531 49.8125C72.3594 49.8438 72.2969 49.9062 72.2656 50C72.2656 50.0938 72.2188 50.1562 72.125 50.1875C71.9688 51.4375 71.7188 52.4531 71.375 53.2344C71.0625 54.0156 70.5938 54.8125 69.9688 55.625C69.4688 55.5312 69.125 55.5781 68.9375 55.7656C68.7812 55.9531 68.5781 56.125 68.3281 56.2812C68.0156 56.3438 67.7812 56.3281 67.625 56.2344C67.4688 56.1719 67.3281 56.0938 67.2031 56C67.0781 55.9062 66.9375 55.8125 66.7812 55.7188C66.625 55.625 66.375 55.5938 66.0312 55.625C65.9375 55.3438 65.8438 55.0781 65.75 54.8281C65.6562 54.5469 65.4062 54.4219 65 54.4531C65.0938 54.1719 65.125 53.9375 65.0938 53.75C65.0625 53.5312 65.0156 53.3438 64.9531 53.1875C64.8906 53 64.8281 52.8125 64.7656 52.625C64.7344 52.4375 64.7656 52.2188 64.8594 51.9688ZM80.5156 30.5469C80.1094 31.1406 79.6562 31.6875 79.1562 32.1875C78.6562 32.6562 78.1562 33.1562 77.6562 33.6875C77.1875 34.1875 76.7656 34.75 76.3906 35.375C76.0156 35.9688 75.75 36.6875 75.5938 37.5312C76.9062 37.375 78.2812 37.0156 79.7188 36.4531C81.1562 35.8594 82.5156 35.2969 83.7969 34.7656C83.6406 33.6094 83.2344 32.6875 82.5781 32C81.9219 31.2812 81.2344 30.7969 80.5156 30.5469ZM98.4688 33.3594C97.1562 32.8281 96.0625 32.0781 95.1875 31.1094C94.3438 30.1406 93.6562 29 93.125 27.6875C93.4375 26.8438 93.9375 26.1406 94.625 25.5781C95.3125 24.9844 96.0781 24.4844 96.9219 24.0781C97.7969 23.6719 98.7188 23.3438 99.6875 23.0938C100.656 22.8438 101.594 22.625 102.5 22.4375C102.688 22.5 102.781 22.5 102.781 22.4375C102.781 22.375 102.859 22.4062 103.016 22.5312C104.141 22.1875 105.438 21.8594 106.906 21.5469C108.375 21.2031 109.938 21.0781 111.594 21.1719C111.812 21.0469 112.078 20.9844 112.391 20.9844C112.703 20.9531 113.031 20.9375 113.375 20.9375C113.719 20.9375 114.047 20.9375 114.359 20.9375C114.672 20.9062 114.938 20.8438 115.156 20.75C115.344 20.9688 115.625 21.1094 116 21.1719C116.375 21.2031 116.766 21.3594 117.172 21.6406C117.297 21.6719 117.297 21.625 117.172 21.5C117.047 21.3438 117.062 21.2344 117.219 21.1719C117.625 21.1719 117.984 21.2656 118.297 21.4531C118.609 21.6406 118.891 21.8594 119.141 22.1094C119.422 22.3281 119.672 22.5312 119.891 22.7188C120.141 22.9062 120.406 23 120.688 23C120.969 23.3438 121.297 23.6719 121.672 23.9844C122.078 24.2656 122.453 24.5625 122.797 24.875C123.172 25.1875 123.469 25.5312 123.688 25.9062C123.938 26.2812 124.062 26.7031 124.062 27.1719C124.031 27.3594 124.094 27.4688 124.25 27.5C124.406 27.5312 124.516 27.625 124.578 27.7812C124.609 28.9375 124.422 29.9375 124.016 30.7812C123.641 31.625 123.156 32.4062 122.562 33.125C121.969 33.8125 121.328 34.4688 120.641 35.0938C119.984 35.7188 119.375 36.3906 118.812 37.1094C119.188 37.5781 119.609 38.0156 120.078 38.4219C120.578 38.7969 121.078 39.1719 121.578 39.5469C122.078 39.9219 122.547 40.3281 122.984 40.7656C123.453 41.1719 123.844 41.6406 124.156 42.1719C124.25 42.3594 124.453 42.4844 124.766 42.5469C124.859 42.9219 124.984 43.3125 125.141 43.7188C125.328 44.0938 125.5 44.4688 125.656 44.8438C125.812 45.1875 125.906 45.5 125.938 45.7812C125.969 46.0625 125.891 46.2969 125.703 46.4844C125.922 46.6094 126.047 46.8125 126.078 47.0938C126.109 47.3438 126.109 47.5469 126.078 47.7031C125.391 48.5469 124.922 49.1406 124.672 49.4844C124.422 49.8281 124.234 50.0781 124.109 50.2344C123.984 50.3906 123.859 50.5312 123.734 50.6562C123.609 50.7812 123.328 51.0312 122.891 51.4062C121.234 52.4062 119.5 53.3125 117.688 54.125C115.906 54.9062 114.047 55.4375 112.109 55.7188C111.953 55.9375 111.719 56.1094 111.406 56.2344C111.125 56.3906 110.797 56.5156 110.422 56.6094C110.047 56.7031 109.641 56.7812 109.203 56.8438C108.797 56.9062 108.422 56.9688 108.078 57.0312C107.922 56.9688 107.828 56.8594 107.797 56.7031C107.797 56.5781 107.719 56.4844 107.562 56.4219C107.531 56.7969 107.359 56.9844 107.047 56.9844C106.766 57.0156 106.406 56.9531 105.969 56.7969C105.531 56.6406 105.078 56.4219 104.609 56.1406C104.141 55.8594 103.734 55.5938 103.391 55.3438C103.234 55.625 103.031 55.9219 102.781 56.2344C102.562 56.5469 102.328 56.7656 102.078 56.8906C101.641 56.8281 101.312 56.7812 101.094 56.75C100.906 56.7188 100.719 56.7969 100.531 56.9844C100.281 56.8594 100.094 56.7188 99.9688 56.5625C99.8438 56.4375 99.7188 56.2969 99.5938 56.1406C99.4688 56.0156 99.3281 55.9062 99.1719 55.8125C99.0156 55.6875 98.7812 55.5781 98.4688 55.4844C98.5312 55.3281 98.4844 55.0938 98.3281 54.7812C98.1719 54.4375 97.9531 54.2344 97.6719 54.1719C97.8281 53.9219 97.7656 53.6094 97.4844 53.2344C97.2031 52.8281 96.9844 52.375 96.8281 51.875C96.8594 51.6562 96.875 51.4375 96.875 51.2188C96.9062 50.9688 96.9375 50.75 96.9688 50.5625C97.0312 50.3438 97.1094 50.1562 97.2031 50C97.2969 49.8438 97.4531 49.7344 97.6719 49.6719C97.6406 49.2656 97.5156 48.875 97.2969 48.5C97.5781 48.2812 97.7656 48.0156 97.8594 47.7031C97.9531 47.3594 98.0312 47.0156 98.0938 46.6719C98.1875 46.3281 98.2969 46 98.4219 45.6875C98.5469 45.3438 98.75 45.0625 99.0312 44.8438C98.9688 44.75 98.9062 44.6719 98.8438 44.6094C98.7812 44.5469 98.75 44.4375 98.75 44.2812C99.2188 43.5 99.5469 42.8438 99.7344 42.3125C99.9219 41.75 100.062 41.2188 100.156 40.7188C100.281 40.1875 100.406 39.625 100.531 39.0312C100.656 38.4375 100.906 37.6875 101.281 36.7812C101.25 36.2188 101.312 35.7188 101.469 35.2812C101.625 34.8438 101.781 34.4219 101.938 34.0156C102.125 33.5781 102.266 33.125 102.359 32.6562C102.453 32.1875 102.438 31.6406 102.312 31.0156C101.781 31.0781 101.391 31.2656 101.141 31.5781C100.922 31.8906 100.781 32.3125 100.719 32.8438C100.438 33.0938 100.078 33.2188 99.6406 33.2188C99.2031 33.1875 98.8125 33.2344 98.4688 33.3594ZM119.094 42.4062C117.906 41.75 116.812 41.3594 115.812 41.2344C114.844 41.1094 113.906 41.125 113 41.2812C112.125 41.4062 111.281 41.5938 110.469 41.8438C109.656 42.0938 108.844 42.2812 108.031 42.4062C107.625 43.4688 107.203 44.6406 106.766 45.9219C106.328 47.2031 105.906 48.4531 105.5 49.6719C106.625 49.5156 107.656 49.2812 108.594 48.9688C109.531 48.6562 110.438 48.3125 111.312 47.9375C112.188 47.5312 113.047 47.1406 113.891 46.7656C114.734 46.3594 115.609 45.9844 116.516 45.6406C116.609 45.2656 116.812 44.9688 117.125 44.75C117.438 44.5312 117.75 44.3281 118.062 44.1406C118.375 43.9219 118.641 43.6875 118.859 43.4375C119.078 43.1875 119.156 42.8438 119.094 42.4062ZM115.812 27.7344C113.875 27.6719 111.969 27.8438 110.094 28.25C108.219 28.6562 106.641 29.25 105.359 30.0312C105.984 30.5625 106.625 31.0312 107.281 31.4375C107.969 31.8438 108.484 32.3906 108.828 33.0781C110.328 32.4844 111.641 31.7344 112.766 30.8281C113.891 29.8906 114.906 28.8594 115.812 27.7344ZM126.312 51.5469L126.922 51.0781L126.969 50.0938C127.75 48.1875 128.547 46.3594 129.359 44.6094C130.203 42.8594 131.078 41.0625 131.984 39.2188C132.266 38.625 132.547 38.0312 132.828 37.4375C133.141 36.8438 133.438 36.2344 133.719 35.6094C133.688 35.4844 133.672 35.3594 133.672 35.2344C133.672 35.0781 133.703 34.9062 133.766 34.7188C134.203 34.0938 134.547 33.5312 134.797 33.0312C135.078 32.5312 135.344 32.0156 135.594 31.4844C135.875 30.8594 136.172 30.2344 136.484 29.6094C136.828 28.9844 137.25 28.375 137.75 27.7812L138.078 27.3125L138.594 27.3594C138.719 27.2969 138.844 27.25 138.969 27.2188C139.125 27.1562 139.312 27.125 139.531 27.125L140.375 27.2656C141.406 26.7969 142.312 26.125 143.094 25.25C143.906 24.3438 144.719 23.2656 145.531 22.0156L146.094 21.2188L146.844 21.6875C147 21.7812 147.25 21.875 147.594 21.9688C147.938 22.0625 148.297 22.1719 148.672 22.2969C149.328 22.4531 149.969 22.6406 150.594 22.8594C151.219 23.0469 151.703 23.3125 152.047 23.6562L152.281 24.0781C152.344 24.4219 152.391 24.7344 152.422 25.0156C152.484 25.2969 152.547 25.5781 152.609 25.8594C152.734 26.5156 152.844 27.1719 152.938 27.8281C153.031 28.4531 153.094 29.1562 153.125 29.9375C153.281 30.5625 153.422 31.2031 153.547 31.8594C153.703 32.4844 153.844 33.1094 153.969 33.7344C154.125 34.6406 154.297 35.5156 154.484 36.3594C154.672 37.1719 154.922 37.9531 155.234 38.7031C155.547 38.7031 155.734 38.7188 155.797 38.75C156.172 38.5938 156.609 38.5 157.109 38.4688L157.719 38.4219L157.906 38.9844C157.969 39.0781 158.047 39.1719 158.141 39.2656C158.234 39.3594 158.344 39.4531 158.469 39.5469C158.969 39.5781 159.328 39.6875 159.547 39.875C159.797 40.0312 160 40.1875 160.156 40.3438C160.219 40.4062 160.297 40.4844 160.391 40.5781C160.484 40.6406 160.562 40.6875 160.625 40.7188L161.469 41.0469L161 41.9375C160.656 42.5938 160.125 43.2344 159.406 43.8594C158.719 44.4844 157.938 45 157.062 45.4062C157.125 45.625 157.156 45.8281 157.156 46.0156C157.188 46.2031 157.234 46.4219 157.297 46.6719C157.422 47.2969 157.516 47.9531 157.578 48.6406C157.672 49.2969 157.672 49.9844 157.578 50.7031C157.266 51.5156 156.891 52.25 156.453 52.9062C156.047 53.5312 155.547 54.1094 154.953 54.6406C154.391 55.1406 153.75 55.5625 153.031 55.9062C152.312 56.2188 151.562 56.3906 150.781 56.4219C150.344 56.3281 150.016 56.2188 149.797 56.0938C149.609 55.9688 149.438 55.8438 149.281 55.7188C149.031 55.5312 148.828 55.4062 148.672 55.3438L148.062 55.0625L148.25 54.3594C148.344 54.1094 148.328 53.8906 148.203 53.7031C148.109 53.5156 147.891 53.2656 147.547 52.9531C147.422 52.8594 147.312 52.7656 147.219 52.6719C147.125 52.5469 147.016 52.4219 146.891 52.2969L145.953 51.2188L147.5 50.7969C148.438 50.5469 149.062 50.2344 149.375 49.8594C149.688 49.4531 149.812 48.75 149.75 47.75C148.969 47.5938 148.328 47.5781 147.828 47.7031C147.328 47.7969 146.828 47.9062 146.328 48.0312C145.609 48.2188 144.906 48.3906 144.219 48.5469C143.531 48.6719 142.781 48.7344 141.969 48.7344C141.438 48.7344 140.875 48.6875 140.281 48.5938L139.766 48.5469L139.625 48.0312C139.625 47.9688 139.578 47.9062 139.484 47.8438C139.422 47.75 139.359 47.6719 139.297 47.6094C139.141 47.4219 138.953 47.1719 138.734 46.8594C138.516 46.5469 138.469 46.1562 138.594 45.6875C138.375 45.3438 138.25 44.9844 138.219 44.6094C138.094 44.8594 137.984 45.1094 137.891 45.3594C137.828 45.5781 137.766 45.7969 137.703 46.0156L137.516 46.625L136.906 46.7188C136.844 46.7812 136.781 46.875 136.719 47C136.688 47.125 136.688 47.2188 136.719 47.2812L136.906 47.7969L136.438 48.2188C136.375 48.3125 136.297 48.3906 136.203 48.4531C136.109 48.5156 136.031 48.5781 135.969 48.6406C135.906 48.9844 135.812 49.3125 135.688 49.625C135.594 49.9375 135.484 50.25 135.359 50.5625C135.203 51.0625 135.047 51.5469 134.891 52.0156C134.766 52.4844 134.703 52.9531 134.703 53.4219L134.516 54.0312C134.359 54.2812 134.156 54.4688 133.906 54.5938C133.688 54.7188 133.469 54.8281 133.25 54.9219C132.938 55.0469 132.719 55.1719 132.594 55.2969L132.453 55.9062L131.75 56C131.344 56.0938 131.047 56.1562 130.859 56.1875C130.703 56.2188 130.516 56.2344 130.297 56.2344L129.688 56.1875C129.312 55.8125 129 55.5312 128.75 55.3438C128.531 55.125 128.266 54.9375 127.953 54.7812L127.672 54.4062C127.547 54.1562 127.469 53.9375 127.438 53.75C127.406 53.5312 127.359 53.3125 127.297 53.0938C127.234 52.6875 127.141 52.4062 127.016 52.25L126.312 51.5469ZM141.266 39.3594C140.828 39.9844 140.406 40.6406 140 41.3281C140.219 41.2969 140.422 41.2812 140.609 41.2812C140.828 41.2812 141.047 41.2656 141.266 41.2344C142.359 41.1719 143.375 41.0938 144.312 41C145.25 40.9062 146.266 40.75 147.359 40.5312C147.109 39.375 146.828 38.2031 146.516 37.0156C146.234 35.7969 145.922 34.5781 145.578 33.3594L145.344 33.8281C144.562 34.6719 143.812 35.5781 143.094 36.5469C142.375 37.5156 141.781 38.4375 141.312 39.3125L141.266 39.3594ZM169.719 51.5938C169.406 51.8438 169.219 52.1719 169.156 52.5781C169.094 52.9531 169.016 53.3281 168.922 53.7031C168.828 54.0781 168.656 54.4062 168.406 54.6875C168.188 54.9375 167.781 55.0469 167.188 55.0156C167.062 55.1719 167.031 55.2656 167.094 55.2969C167.188 55.3281 167.266 55.4688 167.328 55.7188C166.891 55.6562 166.578 55.6875 166.391 55.8125C166.203 55.9375 165.969 56.0312 165.688 56.0938C164.969 55.875 164.359 55.4844 163.859 54.9219C163.391 54.3281 162.969 53.6875 162.594 53C162.25 52.3125 161.938 51.6094 161.656 50.8906C161.406 50.1719 161.141 49.5469 160.859 49.0156C160.859 48.8906 160.922 48.8438 161.047 48.875C161.141 48.875 161.234 48.875 161.328 48.875C161.172 48.5625 161.062 48.2188 161 47.8438C160.906 47.4375 160.75 47.1094 160.531 46.8594C161.438 44.9219 162.406 42.9062 163.438 40.8125C164.469 38.6875 165.5 36.5469 166.531 34.3906C167.594 32.2031 168.641 30.0156 169.672 27.8281C170.734 25.6094 171.75 23.4375 172.719 21.3125C173.594 21.625 174.438 22 175.25 22.4375C176.094 22.8438 176.859 23.3281 177.547 23.8906C178.234 24.4531 178.812 25.1094 179.281 25.8594C179.781 26.5781 180.109 27.4062 180.266 28.3438C180.203 28.5312 180.125 28.5938 180.031 28.5312C179.938 28.4688 179.859 28.5 179.797 28.625C179.953 28.8125 180.031 28.9531 180.031 29.0469C180.062 29.1094 180.062 29.1875 180.031 29.2812C180 29.3438 179.984 29.4375 179.984 29.5625C179.984 29.6875 180.062 29.8594 180.219 30.0781C180.062 30.0469 179.953 30.0781 179.891 30.1719C179.828 30.2344 179.719 30.2344 179.562 30.1719C179.719 30.6094 179.766 30.9531 179.703 31.2031C179.641 31.4531 179.547 31.6875 179.422 31.9062C179.297 32.0938 179.188 32.3125 179.094 32.5625C179.031 32.7812 179.062 33.0938 179.188 33.5C179.062 33.5 178.969 33.5312 178.906 33.5938C178.875 33.625 178.844 33.6719 178.812 33.7344C178.781 33.7969 178.734 33.8594 178.672 33.9219C178.641 33.9531 178.562 33.9531 178.438 33.9219C178.531 34.7344 178.562 35.5625 178.531 36.4062C178.5 37.2188 178.469 38.0625 178.438 38.9375C178.406 39.7812 178.406 40.6562 178.438 41.5625C178.469 42.4688 178.594 43.4062 178.812 44.375C180.156 43.5938 181.234 42.5781 182.047 41.3281C182.891 40.0781 183.547 38.6875 184.016 37.1562C184.516 35.625 184.891 33.9844 185.141 32.2344C185.422 30.4844 185.703 28.7031 185.984 26.8906C186.328 26.5469 186.594 26.125 186.781 25.625C187 25.125 187.172 24.6094 187.297 24.0781C187.453 23.5469 187.594 23.0156 187.719 22.4844C187.875 21.9219 188.078 21.4219 188.328 20.9844C188.891 21.0469 189.359 21.2188 189.734 21.5C190.141 21.75 190.516 22.0469 190.859 22.3906C191.203 22.7031 191.562 23 191.938 23.2812C192.312 23.5625 192.781 23.75 193.344 23.8438C193.781 24.4688 194.188 25.0781 194.562 25.6719C194.938 26.2344 195.188 26.875 195.312 27.5938C195.125 27.9062 194.984 28.25 194.891 28.625C194.797 29 194.688 29.375 194.562 29.75C194.469 30.125 194.328 30.4688 194.141 30.7812C193.953 31.0938 193.688 31.3594 193.344 31.5781C193.25 32.5156 193.109 33.3906 192.922 34.2031C192.734 35.0156 192.562 35.8125 192.406 36.5938C192.25 37.375 192.109 38.1875 191.984 39.0312C191.859 39.875 191.812 40.7969 191.844 41.7969C191.562 42.7031 191.25 43.6406 190.906 44.6094C190.562 45.5469 190.312 46.4219 190.156 47.2344C189.562 47.7031 189.094 48.2812 188.75 48.9688C188.406 49.6562 188.047 50.3438 187.672 51.0312C187.516 51.1562 187.422 51.1875 187.391 51.125C187.359 51.0312 187.219 50.9688 186.969 50.9375C187 51.2188 186.938 51.4062 186.781 51.5C186.656 51.5625 186.672 51.7812 186.828 52.1562C186.297 52.4062 185.828 52.7344 185.422 53.1406C185.016 53.5469 184.562 53.9219 184.062 54.2656C183.594 54.6094 183.031 54.8438 182.375 54.9688C181.75 55.0625 180.922 54.9219 179.891 54.5469C178.359 53.4219 176.984 52.125 175.766 50.6562C174.547 49.1875 173.578 47.4531 172.859 45.4531C172.547 45.5469 172.312 45.75 172.156 46.0625C172 46.375 171.859 46.7031 171.734 47.0469C171.609 47.3906 171.484 47.7031 171.359 47.9844C171.234 48.2656 171.047 48.4062 170.797 48.4062C170.734 48.6875 170.609 48.9531 170.422 49.2031C170.266 49.4219 170.109 49.6562 169.953 49.9062C169.797 50.125 169.672 50.375 169.578 50.6562C169.516 50.9375 169.562 51.25 169.719 51.5938Z" fill="#4E2525"/>
<path d="M198.453 51.9219C197.547 51.2344 196.797 50.375 196.203 49.3438C195.641 48.3125 195.188 47.2188 194.844 46.0625C194.531 44.9062 194.312 43.7188 194.188 42.5C194.094 41.25 194.062 40.0625 194.094 38.9375C194.375 38.0938 194.719 37.3281 195.125 36.6406C195.531 35.9219 195.984 35.25 196.484 34.625C196.984 33.9688 197.5 33.3594 198.031 32.7969C198.594 32.2031 199.141 31.6094 199.672 31.0156C199.859 31.0156 200.031 31.0625 200.188 31.1562C200.312 30.8125 200.5 30.5156 200.75 30.2656C201 30.0156 201.266 29.7969 201.547 29.6094C201.828 29.3906 202.109 29.1875 202.391 29C202.672 28.7812 202.906 28.5312 203.094 28.25C203.875 28.0625 204.562 27.7969 205.156 27.4531C205.781 27.1094 206.375 26.7344 206.938 26.3281C207.5 25.9219 208.078 25.5469 208.672 25.2031C209.266 24.8594 209.953 24.5938 210.734 24.4062C211.016 24.0938 211.359 23.8281 211.766 23.6094C212.203 23.3906 212.625 23.1875 213.031 23C213.469 22.8125 213.875 22.6094 214.25 22.3906C214.656 22.1719 214.984 21.875 215.234 21.5C215.422 21.75 215.688 21.8438 216.031 21.7812C216.375 21.6875 216.688 21.5938 216.969 21.5C217.156 21.4688 217.312 21.5 217.438 21.5938C217.562 21.6875 217.672 21.7969 217.766 21.9219C217.891 22.0156 217.984 22.0781 218.047 22.1094C218.141 22.1406 218.234 22.0469 218.328 21.8281C218.578 21.8594 218.641 21.9688 218.516 22.1562C218.422 22.3438 218.359 22.4688 218.328 22.5312C218.641 22.4688 218.891 22.5312 219.078 22.7188C219.297 22.875 219.625 22.9844 220.062 23.0469C220.219 23.2031 220.266 23.3281 220.203 23.4219C220.141 23.5156 220.094 23.6719 220.062 23.8906C221.188 24.2344 221.906 24.7812 222.219 25.5312C222.531 26.25 222.562 27.0156 222.312 27.8281C222.062 28.6094 221.594 29.3438 220.906 30.0312C220.25 30.6875 219.516 31.125 218.703 31.3438C217.734 31.5938 216.828 31.8438 215.984 32.0938C215.172 32.3438 214.375 32.625 213.594 32.9375C212.844 33.25 212.125 33.625 211.438 34.0625C210.781 34.4688 210.203 34.9531 209.703 35.5156C208.828 35.7656 208.031 36.1094 207.312 36.5469C206.625 36.9844 205.969 37.4688 205.344 38C204.75 38.5312 204.172 39.0938 203.609 39.6875C203.047 40.25 202.484 40.8125 201.922 41.375C201.922 41.9062 201.828 42.3125 201.641 42.5938C201.453 42.875 201.25 43.1562 201.031 43.4375C201.094 44.0312 201.219 44.5469 201.406 44.9844C201.625 45.3906 201.844 45.8125 202.062 46.25C204.562 47 207.203 47.4688 209.984 47.6562C212.797 47.8125 215.578 47.9062 218.328 47.9375C218.609 48.3125 218.922 48.6719 219.266 49.0156C219.641 49.3281 219.969 49.6562 220.25 50C220.562 50.3438 220.797 50.75 220.953 51.2188C221.141 51.6562 221.188 52.1875 221.094 52.8125C220.562 53.3438 219.984 53.8594 219.359 54.3594C218.734 54.8281 218.109 55.2969 217.484 55.7656C217.203 55.7969 216.859 55.7969 216.453 55.7656C216.078 55.7344 215.672 55.7188 215.234 55.7188C214.828 55.7188 214.406 55.75 213.969 55.8125C213.562 55.8438 213.172 55.9375 212.797 56.0938C210.828 56.0312 208.812 55.7969 206.75 55.3906C204.688 54.9531 202.781 54.4375 201.031 53.8438C200.688 53.4375 200.328 53.0625 199.953 52.7188C199.578 52.3438 199.078 52.0781 198.453 51.9219ZM234.734 56.1875C233.359 56.375 232.109 56.3125 230.984 56C229.859 55.6875 228.844 55.2031 227.938 54.5469C227.062 53.8906 226.297 53.1094 225.641 52.2031C225.016 51.2969 224.5 50.3281 224.094 49.2969C223.812 47.1719 223.891 45.25 224.328 43.5312C224.766 41.7812 225.406 40.1719 226.25 38.7031C227.094 37.2344 228.047 35.8594 229.109 34.5781C230.203 33.2969 231.25 32.0625 232.25 30.875C232.469 30.9688 232.641 30.9688 232.766 30.875C232.922 30.7812 233.047 30.6562 233.141 30.5C233.266 30.3438 233.391 30.1875 233.516 30.0312C233.672 29.875 233.844 29.7656 234.031 29.7031C234.156 29.4219 234.312 29.1875 234.5 29C234.719 28.8125 234.938 28.6406 235.156 28.4844C235.406 28.2969 235.625 28.1094 235.812 27.9219C236.031 27.7344 236.219 27.5 236.375 27.2188C236.688 27.1562 236.953 27.0469 237.172 26.8906C237.422 26.7344 237.641 26.5625 237.828 26.375C238.047 26.1875 238.266 26.0156 238.484 25.8594C238.703 25.7031 238.969 25.5781 239.281 25.4844V24.875C239.969 24.5625 240.469 24.2188 240.781 23.8438C241.094 23.4688 241.469 22.9844 241.906 22.3906C242.25 22.3594 242.516 22.3438 242.703 22.3438C242.922 22.3438 243.25 22.3125 243.688 22.25C243.969 21.7188 244.234 21.3281 244.484 21.0781C244.734 20.8281 245.094 20.5469 245.562 20.2344C246.031 20.4844 246.531 20.6406 247.062 20.7031C247.594 20.7344 248.078 20.9688 248.516 21.4062C248.547 21.7812 248.656 22.0781 248.844 22.2969C249.031 22.4844 249.234 22.6719 249.453 22.8594C249.672 23.0156 249.891 23.1875 250.109 23.375C250.328 23.5625 250.469 23.8281 250.531 24.1719C250.688 24.1719 250.781 24.1406 250.812 24.0781C250.875 24.0156 250.984 24 251.141 24.0312C251.203 24.2812 251.266 24.4844 251.328 24.6406C251.391 24.7969 251.453 24.9375 251.516 25.0625C251.609 25.1875 251.688 25.3281 251.75 25.4844C251.844 25.6406 251.922 25.8281 251.984 26.0469C251.828 26.4219 251.688 26.8281 251.562 27.2656C251.438 27.6719 251.188 27.9531 250.812 28.1094C250.812 28.3594 250.906 28.5 251.094 28.5312C251.281 28.5312 251.391 28.6406 251.422 28.8594C251.453 29.1406 251.406 29.375 251.281 29.5625C252.156 31.0312 252.953 32.5781 253.672 34.2031C254.391 35.7969 255.203 37.3281 256.109 38.7969C256.047 39.2344 256.062 39.6719 256.156 40.1094C256.281 40.5156 256.422 40.9219 256.578 41.3281C256.766 41.7344 256.938 42.1406 257.094 42.5469C257.25 42.9531 257.359 43.3594 257.422 43.7656C257.484 44.2969 257.484 44.875 257.422 45.5C257.359 46.0938 257.234 46.6719 257.047 47.2344C256.859 47.7969 256.609 48.3281 256.297 48.8281C255.984 49.2969 255.625 49.6562 255.219 49.9062C254.719 50.5312 254.094 51.0469 253.344 51.4531C252.594 51.8281 251.906 52.2812 251.281 52.8125C250.844 53.0625 250.375 53.25 249.875 53.375C249.375 53.4688 248.859 53.5781 248.328 53.7031C247.922 53.9531 247.438 54.2031 246.875 54.4531C246.312 54.6719 245.734 54.875 245.141 55.0625C244.547 55.25 243.953 55.4062 243.359 55.5312C242.766 55.625 242.234 55.6406 241.766 55.5781C240.641 55.9844 239.547 56.2656 238.484 56.4219C237.422 56.5781 236.172 56.5 234.734 56.1875ZM235.344 39.125C235.031 39.8438 234.656 40.5 234.219 41.0938C233.812 41.6562 233.406 42.2344 233 42.8281C232.594 43.4219 232.234 44.0625 231.922 44.75C231.641 45.4062 231.484 46.1875 231.453 47.0938C232.078 47.625 232.812 47.9531 233.656 48.0781C234.531 48.1719 235.422 48.1875 236.328 48.125C237.234 48.0312 238.141 47.9062 239.047 47.75C239.953 47.5938 240.766 47.5156 241.484 47.5156C241.484 47.2344 241.609 47.0938 241.859 47.0938C243.172 46.9688 244.391 46.6094 245.516 46.0156C246.641 45.3906 247.812 44.7656 249.031 44.1406C249.188 43.7656 249.391 43.4375 249.641 43.1562C249.891 42.875 250.031 42.4688 250.062 41.9375C249.906 41.6562 249.797 41.4219 249.734 41.2344C249.703 41.0469 249.688 40.7656 249.688 40.3906C248.875 39.2656 248.172 38.0469 247.578 36.7344C246.984 35.3906 246.297 34.125 245.516 32.9375C245.453 33.0938 245.328 33.25 245.141 33.4062C244.953 33.5625 244.75 33.5312 244.531 33.3125C244.438 33.625 244.297 33.8438 244.109 33.9688C243.922 34.0625 243.703 34.1094 243.453 34.1094C243.234 34.1094 243 34.0625 242.75 33.9688C242.531 33.875 242.328 33.75 242.141 33.5938C241.047 34.4688 239.953 35.3125 238.859 36.125C237.797 36.9375 236.828 37.8906 235.953 38.9844C235.797 39.0781 235.703 39.1094 235.672 39.0781C235.641 39.0469 235.531 39.0625 235.344 39.125ZM261.406 38.375C261.25 37.5 261.203 36.5938 261.266 35.6562C261.328 34.7188 261.359 33.8125 261.359 32.9375C261.359 32.0938 261.297 31.2031 261.172 30.2656C261.078 29.2969 260.984 28.375 260.891 27.5C260.828 26.625 260.797 25.8281 260.797 25.1094C260.828 24.3594 260.938 23.7812 261.125 23.375C261.375 22.9062 261.688 22.5469 262.062 22.2969C262.438 22.0156 262.797 21.7031 263.141 21.3594C263.547 21.4219 263.906 21.5469 264.219 21.7344C264.562 21.8906 264.844 22.1094 265.062 22.3906C265.312 22.6406 265.484 22.9062 265.578 23.1875C265.703 23.4688 265.734 23.75 265.672 24.0312C266.453 24.5 267.078 25.1406 267.547 25.9531C268.047 26.7344 268.422 27.6094 268.672 28.5781C268.953 29.5156 269.141 30.5156 269.234 31.5781C269.359 32.6406 269.453 33.6875 269.516 34.7188C269.609 35.75 269.688 36.7344 269.75 37.6719C269.844 38.5781 270 39.375 270.219 40.0625C271.594 38.0625 272.75 36.2969 273.688 34.7656C274.656 33.2031 275.625 31.7188 276.594 30.3125C277.562 28.875 278.641 27.4219 279.828 25.9531C281.047 24.4844 282.594 22.8281 284.469 20.9844C284.875 21.0469 285.188 21.125 285.406 21.2188C285.625 21.3125 285.844 21.4062 286.062 21.5C286.281 21.5938 286.516 21.6719 286.766 21.7344C287.016 21.7656 287.359 21.75 287.797 21.6875C287.953 22.0625 288.062 22.3438 288.125 22.5312C288.219 22.6875 288.297 22.8438 288.359 23C288.422 23.1562 288.5 23.3594 288.594 23.6094C288.688 23.8594 288.828 24.2344 289.016 24.7344C289.109 24.8594 289.141 25.0312 289.109 25.25C289.109 25.4375 289.094 25.6094 289.062 25.7656C289.031 25.9219 289.016 26.0469 289.016 26.1406C289.047 26.2344 289.156 26.2344 289.344 26.1406C289.219 26.6719 289.016 27.1562 288.734 27.5938C288.453 28 288.328 28.5 288.359 29.0938C287.516 30.2188 286.578 31.375 285.547 32.5625C284.516 33.75 283.484 35 282.453 36.3125C281.422 37.5938 280.422 38.9375 279.453 40.3438C278.516 41.7188 277.719 43.1875 277.062 44.75C276.875 44.75 276.734 44.7969 276.641 44.8906C276.547 44.9844 276.453 45.0938 276.359 45.2188C276.297 45.3438 276.219 45.4688 276.125 45.5938C276.062 45.7188 275.938 45.7812 275.75 45.7812C275.688 46.7812 275.312 47.7344 274.625 48.6406C273.969 49.5156 273.297 50.2656 272.609 50.8906C272.672 51.1406 272.703 51.3438 272.703 51.5C272.703 51.6562 272.688 51.8125 272.656 51.9688C272.625 52.125 272.594 52.2969 272.562 52.4844C272.562 52.6406 272.578 52.8438 272.609 53.0938C272.328 53.8438 271.953 54.4688 271.484 54.9688C271.047 55.4688 270.562 55.8438 270.031 56.0938C269.5 56.3438 268.953 56.4375 268.391 56.375C267.828 56.3438 267.297 56.1562 266.797 55.8125C266.578 55.6875 266.391 55.5156 266.234 55.2969C266.078 55.0781 265.906 54.875 265.719 54.6875C265.562 54.4688 265.391 54.2812 265.203 54.125C265.047 53.9375 264.844 53.8125 264.594 53.75C264.656 53.4375 264.656 53.1094 264.594 52.7656C264.562 52.4219 264.5 52.1094 264.406 51.8281C264.312 51.5469 264.203 51.3125 264.078 51.125C263.953 50.9375 263.828 50.8438 263.703 50.8438C263.578 50.0625 263.406 49.2188 263.188 48.3125C263 47.375 262.797 46.4531 262.578 45.5469C262.391 44.6406 262.234 43.75 262.109 42.875C261.984 42 261.938 41.1875 261.969 40.4375C262 40.0625 261.922 39.7344 261.734 39.4531C261.578 39.1406 261.469 38.7812 261.406 38.375ZM288.359 54.4062C288.109 54.1562 287.922 53.8594 287.797 53.5156C287.703 53.1719 287.453 52.8906 287.047 52.6719C286.984 52.2031 286.891 51.6719 286.766 51.0781C286.672 50.4531 286.562 49.8281 286.438 49.2031C286.344 48.5469 286.266 47.9062 286.203 47.2812C286.172 46.625 286.203 46.0312 286.297 45.5C286.359 45.2188 286.453 44.9531 286.578 44.7031C286.734 44.4531 286.875 44.2188 287 44C287.156 43.75 287.266 43.5 287.328 43.25C287.422 43 287.438 42.75 287.375 42.5C287.562 42.4688 287.672 42.375 287.703 42.2188C287.766 42.0312 287.922 41.9688 288.172 42.0312C288.391 41.3438 288.625 40.7031 288.875 40.1094C289.125 39.5156 289.391 38.9375 289.672 38.375C289.953 37.8125 290.234 37.25 290.516 36.6875C290.828 36.0938 291.109 35.4375 291.359 34.7188C290.828 34.2188 290.438 33.6875 290.188 33.125C289.969 32.5312 289.797 31.9375 289.672 31.3438C289.547 30.75 289.453 30.1562 289.391 29.5625C289.328 28.9375 289.203 28.3125 289.016 27.6875C289.391 27.125 289.844 26.6719 290.375 26.3281C290.906 25.9531 291.484 25.6562 292.109 25.4375C292.766 25.1875 293.469 25 294.219 24.875C294.969 24.7188 295.766 24.5469 296.609 24.3594C298.109 23.8906 299.453 23.5312 300.641 23.2812C301.828 23 302.984 22.7812 304.109 22.625C305.234 22.4375 306.406 22.2812 307.625 22.1562C308.844 22 310.25 21.7812 311.844 21.5C311.875 21.5938 311.922 21.6406 311.984 21.6406C312.078 21.6406 312.188 21.6406 312.312 21.6406C312.406 21.8594 312.578 21.9688 312.828 21.9688C312.828 21.875 312.812 21.7969 312.781 21.7344C312.781 21.6406 312.781 21.5625 312.781 21.5C312.844 21.5 312.922 21.5156 313.016 21.5469C313.141 21.5781 313.234 21.6094 313.297 21.6406C313.391 21.6719 313.469 21.6719 313.531 21.6406C313.594 21.5781 313.609 21.4688 313.578 21.3125C313.953 21.9688 314.438 22.5156 315.031 22.9531C315.625 23.3594 316.281 23.7188 317 24.0312C317.031 24.3125 317.031 24.5156 317 24.6406C317 24.7656 316.984 24.8906 316.953 25.0156C316.922 25.1094 316.906 25.2344 316.906 25.3906C316.906 25.5156 316.938 25.7031 317 25.9531C316.5 26.7969 315.922 27.4531 315.266 27.9219C314.641 28.3906 313.969 28.75 313.25 29C312.531 29.25 311.766 29.4375 310.953 29.5625C310.172 29.6875 309.359 29.8281 308.516 29.9844C307.703 30.1094 306.875 30.2969 306.031 30.5469C305.188 30.7969 304.359 31.1719 303.547 31.6719C303.297 31.5781 303.062 31.5469 302.844 31.5781C302.656 31.5781 302.453 31.6094 302.234 31.6719C302.016 31.7344 301.766 31.7969 301.484 31.8594C301.234 31.9219 300.922 31.9219 300.547 31.8594C300.297 32.0781 300 32.2344 299.656 32.3281C299.344 32.4219 299.016 32.5156 298.672 32.6094C298.828 32.9531 298.891 33.2969 298.859 33.6406C298.859 33.9844 298.906 34.2812 299 34.5312C300.312 34.6562 301.766 34.6562 303.359 34.5312C304.953 34.375 306.516 34.2656 308.047 34.2031C308.078 34.3594 308.062 34.4688 308 34.5312C307.938 34.5938 307.906 34.7031 307.906 34.8594C308.188 35.0469 308.453 35.2812 308.703 35.5625C308.953 35.8438 309.203 36.125 309.453 36.4062C309.734 36.6562 310.016 36.875 310.297 37.0625C310.578 37.2188 310.906 37.2812 311.281 37.25C311.438 37.5625 311.547 37.8906 311.609 38.2344C311.672 38.5781 311.625 38.9375 311.469 39.3125C310.844 39.7188 310.234 40.1406 309.641 40.5781C309.047 40.9844 308.422 41.3594 307.766 41.7031C307.141 42.0469 306.453 42.3281 305.703 42.5469C304.953 42.7656 304.141 42.8594 303.266 42.8281C303.109 42.8281 302.969 42.8281 302.844 42.8281C302.75 42.8281 302.625 42.7656 302.469 42.6406C302.156 42.7969 301.734 42.8594 301.203 42.8281C300.703 42.7656 300.281 42.8125 299.938 42.9688C299.5 42.8125 298.984 42.7344 298.391 42.7344C297.828 42.7344 297.328 42.6562 296.891 42.5C296.328 43.3125 295.797 44.1719 295.297 45.0781C294.797 45.9531 294.359 46.8906 293.984 47.8906C295.266 48.0781 296.328 48.1562 297.172 48.125C298.016 48.0938 298.812 48.0312 299.562 47.9375C300.312 47.8438 301.078 47.75 301.859 47.6562C302.672 47.5625 303.656 47.5312 304.812 47.5625C305.594 47.1875 306.484 46.9375 307.484 46.8125C308.516 46.6562 309.469 46.4375 310.344 46.1562C310.656 46.25 310.922 46.4375 311.141 46.7188C311.359 46.9688 311.562 47.2344 311.75 47.5156C311.969 47.7656 312.188 47.9844 312.406 48.1719C312.625 48.3594 312.906 48.4219 313.25 48.3594C313.406 48.5156 313.5 48.7031 313.531 48.9219C313.594 49.1406 313.641 49.3438 313.672 49.5312C313.734 49.7188 313.812 49.875 313.906 50C314 50.0938 314.172 50.125 314.422 50.0938C313.828 51.3125 313.156 52.25 312.406 52.9062C311.688 53.5625 310.859 54.0781 309.922 54.4531C309.016 54.7969 307.984 55.0625 306.828 55.25C305.703 55.4062 304.438 55.6094 303.031 55.8594C302.688 55.9219 302.391 55.9219 302.141 55.8594C301.922 55.7656 301.688 55.7188 301.438 55.7188C300.562 55.875 299.516 56.0312 298.297 56.1875C297.109 56.3438 295.906 56.4062 294.688 56.375C293.469 56.3438 292.297 56.1875 291.172 55.9062C290.047 55.625 289.109 55.125 288.359 54.4062Z" fill="#EC2020"/>
</svg>
